<svg id="svg" version="1.1" xmlns="http://www.w3.org/2000/svg" xmlns:xlink="http://www.w3.org/1999/xlink" width="400" height="353.71428571428567" viewBox="0, 0, 400,353.71428571428567"><g id="svgg"><path id="path0" d="M248.901 139.301 C 247.276 139.510,243.977 139.824,241.572 140.000 C 228.009 140.989,221.835 145.453,221.098 154.800 C 220.423 163.369,219.708 164.765,211.841 172.881 C 202.401 182.619,201.308 186.138,204.576 196.286 C 205.980 200.646,206.096 201.217,206.118 203.884 L 206.143 206.769 207.143 206.113 C 208.635 205.133,210.580 204.801,214.813 204.804 L 218.627 204.807 220.385 203.788 C 224.539 201.382,228.695 198.083,230.591 195.690 L 231.477 194.571 230.287 193.219 C 225.748 188.063,224.134 179.124,226.580 172.691 L 226.854 171.971 228.626 173.405 C 237.101 180.263,254.803 180.986,264.880 174.886 C 267.022 173.589,266.980 173.557,267.443 176.818 C 268.385 183.454,266.248 189.761,261.409 194.625 L 258.939 197.107 260.555 197.968 C 263.375 199.471,267.024 200.533,269.429 200.551 C 270.607 200.560,273.114 200.893,275.000 201.292 C 276.886 201.691,279.457 202.220,280.714 202.468 C 283.292 202.977,284.734 203.622,286.500 205.053 L 287.714 206.038 287.972 205.376 C 288.114 205.012,288.871 203.300,289.655 201.571 C 293.546 192.986,293.044 190.181,286.137 181.901 C 281.519 176.367,280.688 174.700,274.863 159.286 C 270.195 146.935,269.063 144.464,267.230 142.632 C 263.847 139.248,257.827 138.154,248.901 139.301 M279.927 242.634 C 279.826 245.002,279.590 246.724,279.204 247.929 C 278.889 248.911,278.736 249.714,278.863 249.714 C 279.316 249.714,282.300 246.163,282.158 245.793 C 282.078 245.586,281.612 244.037,281.122 242.351 C 280.632 240.665,280.197 239.250,280.154 239.206 C 280.112 239.161,280.010 240.704,279.927 242.634 M209.326 246.225 C 208.697 248.467,208.694 248.456,210.006 249.323 C 211.508 250.317,211.526 250.265,210.712 247.305 C 209.851 244.175,209.892 244.207,209.326 246.225 M204.579 252.192 C 203.839 252.464,202.688 253.274,201.844 254.119 C 199.360 256.603,199.429 256.037,199.429 274.051 C 199.429 282.666,199.318 289.714,199.183 289.714 C 199.048 289.714,196.518 288.538,193.562 287.100 L 188.186 284.486 187.528 285.311 C 187.166 285.765,186.723 286.491,186.543 286.925 C 186.363 287.359,186.116 287.714,185.994 287.714 C 185.519 287.714,182.868 284.502,182.237 283.161 L 181.571 281.748 178.429 280.588 C 175.391 279.466,172.127 278.474,168.857 277.677 C 166.449 277.090,160.659 277.160,159.508 277.789 C 155.982 279.716,150.489 290.091,150.093 295.571 C 149.372 305.532,155.138 310.496,178.563 320.083 L 180.984 321.074 171.278 321.259 C 165.939 321.360,155.271 321.574,147.571 321.733 C 139.871 321.893,130.421 322.086,126.571 322.162 C 122.721 322.239,116.807 322.425,113.429 322.577 C 110.050 322.728,106.731 322.853,106.053 322.854 L 104.821 322.857 106.768 321.535 C 119.443 312.922,126.469 301.327,128.902 285.000 C 129.290 282.401,129.459 269.363,129.109 269.014 C 128.827 268.732,122.592 271.250,118.849 273.159 C 112.416 276.438,104.378 282.329,104.681 283.542 C 107.404 294.436,104.238 309.114,96.532 321.315 C 95.199 323.425,94.685 323.714,92.267 323.714 L 90.571 323.714 90.572 322.357 C 90.572 321.611,91.215 307.114,92.000 290.143 C 93.660 254.260,93.534 258.286,93.000 258.286 C 92.764 258.286,92.570 258.446,92.569 258.643 C 92.567 258.839,92.444 261.507,92.294 264.571 C 91.830 274.079,91.634 278.292,91.000 292.429 C 90.916 294.314,90.783 297.079,90.704 298.571 C 90.477 302.923,89.735 319.677,89.677 321.781 C 89.615 324.052,90.028 323.876,84.143 324.143 C 82.100 324.236,79.850 324.377,79.143 324.458 C 77.968 324.591,77.624 324.464,75.143 322.975 C 59.226 313.428,51.280 300.254,49.737 280.857 C 49.452 277.277,49.652 270.252,50.050 269.854 C 50.603 269.301,60.198 273.747,64.857 276.716 C 70.339 280.208,77.392 286.511,77.464 287.982 C 77.485 288.412,77.590 288.184,77.719 287.429 L 77.938 286.143 76.183 284.324 C 69.769 277.678,59.154 271.201,50.105 268.412 L 48.924 268.048 48.741 269.428 C 48.225 273.318,48.684 282.080,49.720 288.143 C 52.281 303.129,60.725 315.446,73.735 323.175 C 75.747 324.370,75.780 324.408,74.996 324.618 C 74.554 324.736,73.995 324.723,73.754 324.588 C 73.513 324.453,73.052 324.440,72.729 324.560 C 72.407 324.679,70.664 324.866,68.857 324.974 C 29.611 327.333,-0.000 332.703,-0.000 337.461 C 0.000 356.137,328.177 359.948,392.045 342.014 C 403.656 338.754,402.738 335.509,389.214 332.007 L 388.000 331.692 388.000 304.696 L 388.000 277.700 387.071 278.185 C 382.776 280.431,367.018 280.101,365.357 277.730 C 365.070 277.320,365.015 282.227,365.076 302.610 C 365.137 322.942,365.080 327.999,364.790 327.997 C 364.591 327.996,362.821 327.806,360.857 327.576 C 354.517 326.832,338.677 325.470,329.143 324.848 C 324.036 324.515,319.418 324.178,318.881 324.100 L 317.904 323.956 319.924 322.860 C 331.176 316.754,337.218 308.293,337.266 298.571 C 337.305 290.914,333.776 287.647,324.286 286.553 C 318.099 285.840,302.835 287.625,300.392 289.347 C 299.941 289.665,299.008 290.210,298.320 290.559 L 297.068 291.192 297.260 290.428 C 297.488 289.522,297.536 289.517,292.347 290.994 C 290.573 291.499,289.084 291.835,289.037 291.742 C 288.957 291.582,289.182 284.975,289.545 276.857 C 290.325 259.387,290.219 258.012,287.897 255.493 C 285.270 252.643,285.355 252.654,263.286 252.426 C 253.386 252.324,244.450 252.197,243.429 252.143 C 235.412 251.718,205.767 251.755,204.579 252.192 M246.868 273.830 C 248.809 275.115,249.685 278.149,248.757 280.371 C 247.081 284.381,240.924 284.439,239.118 280.462 C 236.930 275.643,242.459 270.912,246.868 273.830 M375.223 274.496 C 375.974 274.555,377.131 274.554,377.794 274.494 C 378.457 274.435,377.843 274.386,376.429 274.387 C 375.014 274.388,374.472 274.437,375.223 274.496 M373.286 275.168 C 368.804 275.408,365.215 276.359,365.506 277.231 C 366.223 279.383,382.710 279.854,386.615 277.834 C 389.717 276.230,382.061 274.699,373.286 275.168 M75.286 290.857 C 75.899 291.486,76.466 292.000,76.545 292.000 C 76.623 292.000,76.185 291.486,75.571 290.857 C 74.958 290.229,74.391 289.714,74.313 289.714 C 74.234 289.714,74.672 290.229,75.286 290.857 M58.286 314.375 C 58.286 314.424,58.704 314.842,59.214 315.304 L 60.143 316.143 59.304 315.214 C 58.521 314.349,58.286 314.154,58.286 314.375 M284.320 325.123 C 289.771 326.016,289.435 325.301,289.398 335.929 C 289.381 340.761,289.284 345.485,289.183 346.428 L 289.000 348.141 287.143 349.068 C 284.556 350.360,283.636 350.490,282.187 349.769 C 280.618 348.988,277.077 347.979,272.020 346.871 C 268.645 346.132,267.730 345.822,266.977 345.161 C 266.210 344.488,265.032 344.102,259.899 342.841 L 253.741 341.329 254.450 340.164 C 256.235 337.231,259.140 331.688,259.753 330.048 L 260.429 328.239 261.786 328.405 C 262.532 328.497,263.758 328.650,264.511 328.747 C 265.792 328.911,265.901 328.874,266.227 328.157 C 266.510 327.536,266.697 327.431,267.217 327.601 C 269.730 328.425,278.754 327.036,279.581 325.699 C 280.077 324.896,281.716 324.697,284.320 325.123 M208.143 331.199 C 212.071 332.610,217.536 334.542,220.286 335.492 C 223.036 336.441,225.599 337.336,225.982 337.480 C 226.750 337.768,225.556 338.688,220.122 342.000 C 214.538 345.403,203.732 347.465,201.467 345.560 C 199.989 344.316,198.355 339.154,196.854 330.984 C 196.026 326.478,195.877 326.747,198.643 327.765 C 199.939 328.242,204.214 329.787,208.143 331.199 " stroke="none" fill="#35344b" fill-rule="evenodd"></path><path id="path1" d="M268.567 200.576 C 267.967 200.720,267.865 200.898,267.911 201.730 C 268.246 207.871,267.857 210.816,266.367 213.429 C 261.980 221.116,249.186 225.850,238.981 223.561 C 226.453 220.751,219.244 214.803,218.383 206.564 L 218.204 204.857 216.745 204.815 C 211.100 204.651,208.494 205.072,206.780 206.426 C 206.115 206.951,204.157 208.232,202.429 209.273 C 197.251 212.390,196.688 213.080,194.489 219.000 C 191.333 227.498,189.594 234.283,188.450 242.571 C 187.957 246.144,187.110 250.018,184.047 262.714 C 180.594 277.030,180.534 277.434,181.406 280.789 C 182.086 283.409,185.508 288.462,186.083 287.696 C 186.134 287.627,186.742 286.607,187.433 285.429 C 190.042 280.982,194.018 277.992,197.629 277.762 L 199.429 277.648 199.429 268.018 C 199.429 256.775,199.479 256.484,201.839 254.124 C 203.312 252.651,205.269 251.714,206.874 251.714 C 207.596 251.714,207.698 251.550,208.419 249.214 C 208.844 247.839,209.356 246.200,209.557 245.571 L 209.922 244.429 210.264 245.714 C 210.453 246.421,210.924 248.061,211.312 249.357 L 212.018 251.714 217.366 251.734 C 220.308 251.745,223.486 251.798,224.429 251.851 C 225.371 251.904,232.571 252.025,240.429 252.119 C 248.286 252.213,259.793 252.372,266.000 252.472 L 277.286 252.653 278.186 250.541 C 279.514 247.424,279.780 246.217,279.970 242.429 L 280.143 239.000 281.232 242.571 C 281.831 244.536,282.795 247.712,283.375 249.630 C 284.392 252.996,284.465 253.133,285.470 253.588 C 286.916 254.243,288.712 256.160,289.453 257.842 C 290.046 259.186,290.130 272.642,289.565 275.757 C 289.447 276.411,289.585 276.503,291.551 277.081 C 296.507 278.539,299.117 284.673,297.273 290.526 L 297.062 291.195 298.317 290.563 C 301.235 289.092,305.913 285.264,306.734 283.676 C 308.298 280.651,307.940 267.381,306.158 262.329 C 305.237 259.719,300.340 238.089,299.130 231.286 C 296.797 218.173,288.107 203.807,281.841 202.706 C 281.221 202.597,279.043 202.141,277.000 201.693 C 272.680 200.746,269.571 200.334,268.567 200.576 M90.859 260.056 C 83.692 269.016,78.575 280.339,77.411 289.810 L 77.066 292.621 74.343 289.866 C 68.296 283.750,57.550 277.386,50.173 275.551 L 49.345 275.346 49.542 278.459 C 50.882 299.622,58.608 313.057,75.143 322.975 C 77.624 324.464,77.968 324.591,79.143 324.458 C 79.850 324.377,82.100 324.236,84.143 324.143 C 90.028 323.876,89.615 324.052,89.677 321.781 C 89.735 319.677,90.477 302.923,90.704 298.571 C 90.783 297.079,90.916 294.314,91.000 292.429 C 91.522 280.801,91.724 276.362,91.860 273.571 C 91.944 271.843,92.142 267.729,92.300 264.429 C 92.461 261.067,92.709 258.387,92.865 258.333 C 93.190 258.222,93.244 257.709,92.929 257.726 C 92.811 257.732,91.880 258.781,90.859 260.056 M93.428 258.873 C 93.428 259.100,92.785 273.171,92.000 290.143 C 91.215 307.114,90.572 321.611,90.572 322.357 L 90.571 323.714 92.267 323.714 C 95.209 323.714,95.700 323.220,99.128 316.793 C 107.513 301.072,107.650 285.692,99.555 268.898 C 97.056 263.713,93.430 257.780,93.428 258.873 M42.723 275.929 C 44.482 299.338,53.498 314.318,71.286 323.389 C 75.228 325.399,77.190 325.228,73.735 323.175 C 57.968 313.808,49.886 299.400,48.633 278.429 L 48.429 275.000 46.143 274.381 C 42.412 273.370,42.526 273.318,42.723 275.929 M369.714 274.976 C 365.976 275.640,364.512 276.523,365.294 277.639 C 367.423 280.679,388.000 280.229,388.000 277.143 C 388.000 275.188,376.310 273.803,369.714 274.976 M383.328 275.555 C 388.684 276.442,388.661 277.769,383.274 278.708 C 377.221 279.764,366.040 278.834,365.506 277.231 C 364.923 275.485,376.394 274.406,383.328 275.555 " stroke="none" fill="#f37343" fill-rule="evenodd"></path><path id="path2" d="M195.714 0.321 C 169.298 2.251,142.408 10.729,120.143 24.147 C 30.931 77.907,9.698 196.778,74.782 278.090 L 78.628 282.894 79.610 279.947 C 81.901 273.076,87.337 263.613,91.884 258.580 L 92.930 257.421 94.286 259.354 C 98.520 265.389,102.506 274.061,104.128 280.768 L 104.624 282.821 106.835 280.911 C 112.711 275.834,127.916 267.801,129.206 269.092 C 129.639 269.525,129.611 280.235,129.167 283.783 C 127.714 295.408,124.151 304.083,117.598 311.951 C 116.377 313.417,115.422 314.656,115.475 314.704 C 115.832 315.027,122.136 318.791,124.796 320.269 L 128.020 322.061 140.224 321.737 C 146.937 321.558,158.755 321.331,166.487 321.232 L 180.546 321.051 174.773 318.648 C 160.548 312.725,155.093 309.247,152.016 304.138 C 148.081 297.603,150.029 288.820,157.522 279.316 C 160.140 275.995,166.869 276.269,177.521 280.130 C 179.491 280.844,181.159 281.429,181.228 281.429 C 181.297 281.429,181.180 280.689,180.969 279.786 C 180.465 277.635,180.824 275.373,183.301 265.062 C 187.419 247.922,187.993 245.222,188.718 239.571 C 189.440 233.947,191.859 225.300,195.021 217.040 C 196.437 213.343,197.745 211.898,201.892 209.454 C 203.601 208.446,205.214 207.439,205.476 207.217 C 206.658 206.211,206.364 202.304,204.719 197.170 C 201.194 186.163,202.098 182.901,211.318 173.377 C 219.055 165.385,220.837 162.157,220.852 156.110 C 220.877 145.888,227.161 141.046,241.944 139.858 C 244.882 139.622,248.314 139.287,249.571 139.113 C 257.765 137.984,264.149 139.274,267.406 142.717 C 269.337 144.759,270.072 146.345,274.474 157.971 C 280.885 174.902,281.518 176.169,286.754 182.524 C 293.452 190.653,293.716 193.051,289.039 203.263 L 287.741 206.098 288.632 207.113 C 291.305 210.157,293.747 214.825,296.645 222.429 C 298.653 227.699,298.644 227.666,300.154 235.429 C 301.385 241.763,305.154 258.309,306.141 261.714 C 308.247 268.985,308.620 280.258,306.868 283.692 C 306.348 284.713,304.374 286.719,302.732 287.897 C 301.896 288.498,301.904 288.497,305.304 287.831 C 315.675 285.796,325.257 285.781,330.236 287.793 L 331.986 288.499 334.226 286.035 C 396.381 217.661,393.179 112.812,326.965 48.286 C 292.254 14.459,243.924 -3.203,195.714 0.321 M280.255 248.508 C 279.234 249.564,278.182 250.911,277.918 251.500 L 277.438 252.571 280.219 252.575 C 281.749 252.577,283.277 252.653,283.615 252.744 C 284.183 252.896,282.946 247.422,282.257 246.733 C 282.177 246.653,281.276 247.452,280.255 248.508 M208.443 249.594 C 208.338 250.154,208.182 250.796,208.096 251.020 C 207.969 251.349,208.308 251.429,209.827 251.429 C 212.275 251.429,212.161 250.630,209.489 249.074 L 208.634 248.576 208.443 249.594 M241.380 273.706 C 237.208 275.974,238.338 282.602,243.016 283.303 C 248.409 284.112,251.290 277.396,246.966 274.098 C 245.579 273.040,242.946 272.855,241.380 273.706 M295.286 289.586 C 294.186 290.132,293.479 290.529,293.714 290.468 C 293.950 290.408,294.882 290.193,295.786 289.991 C 297.058 289.706,297.429 289.505,297.429 289.097 C 297.429 288.808,297.396 288.576,297.357 288.583 C 297.318 288.589,296.386 289.040,295.286 289.586 M280.055 325.505 C 278.893 326.905,273.231 328.157,269.224 327.900 L 266.590 327.731 264.470 330.937 C 260.476 336.974,260.383 339.464,264.032 342.588 C 267.654 345.687,267.935 345.844,271.143 346.535 C 275.845 347.548,280.505 348.823,281.893 349.476 C 283.497 350.230,284.849 350.078,287.305 348.869 L 289.114 347.978 289.219 343.632 C 289.438 334.502,289.305 327.254,288.911 326.779 C 287.887 325.545,280.860 324.535,280.055 325.505 M196.464 328.071 C 198.605 340.213,200.279 345.227,202.437 345.953 C 205.060 346.837,215.067 344.875,218.571 342.791 C 223.139 340.074,226.286 337.880,225.914 337.672 C 225.687 337.545,222.689 336.462,219.251 335.266 C 215.813 334.069,209.305 331.752,204.790 330.117 C 195.256 326.664,196.259 326.910,196.464 328.071 " stroke="none" fill="#f3f3f3" fill-rule="evenodd"></path><path id="path3" d="M328.559 49.786 C 329.743 51.047,330.000 51.274,330.000 51.059 C 330.000 51.014,329.389 50.403,328.643 49.702 L 327.286 48.429 328.559 49.786 M255.075 138.774 C 255.430 138.842,255.944 138.839,256.218 138.768 C 256.491 138.696,256.200 138.640,255.571 138.643 C 254.943 138.647,254.719 138.705,255.075 138.774 M242.218 139.916 C 242.573 139.985,243.087 139.982,243.360 139.911 C 243.634 139.839,243.343 139.783,242.714 139.786 C 242.086 139.790,241.862 139.848,242.218 139.916 M224.696 145.786 L 223.857 146.714 224.786 145.875 C 225.296 145.414,225.714 144.996,225.714 144.947 C 225.714 144.726,225.479 144.920,224.696 145.786 M220.923 154.286 C 220.923 154.836,220.982 155.061,221.054 154.786 C 221.126 154.511,221.126 154.061,221.054 153.786 C 220.982 153.511,220.923 153.736,220.923 154.286 M267.527 179.857 C 267.528 181.114,267.578 181.593,267.638 180.921 C 267.698 180.249,267.698 179.220,267.636 178.635 C 267.575 178.050,267.525 178.600,267.527 179.857 M250.643 179.054 C 250.918 179.126,251.368 179.126,251.643 179.054 C 251.918 178.982,251.693 178.923,251.143 178.923 C 250.593 178.923,250.368 178.982,250.643 179.054 M292.082 193.286 C 292.084 194.071,292.139 194.359,292.205 193.925 C 292.271 193.490,292.269 192.847,292.201 192.496 C 292.133 192.145,292.080 192.500,292.082 193.286 M229.766 196.582 C 227.712 198.847,224.361 201.432,220.758 203.529 L 218.231 205.000 218.396 206.635 C 219.447 217.040,235.125 226.173,248.004 223.882 C 263.228 221.174,268.633 215.155,267.911 201.714 L 267.857 200.714 265.050 199.791 C 263.506 199.283,261.470 198.456,260.527 197.953 C 258.848 197.058,258.795 197.049,258.048 197.538 C 250.604 202.409,239.512 201.730,233.094 196.010 L 231.539 194.625 229.766 196.582 M207.714 251.500 C 207.714 251.618,208.679 251.714,209.857 251.714 C 211.036 251.714,212.000 251.618,212.000 251.500 C 212.000 251.382,211.036 251.286,209.857 251.286 C 208.679 251.286,207.714 251.382,207.714 251.500 M129.209 270.000 C 129.209 270.550,129.268 270.775,129.340 270.500 C 129.412 270.225,129.412 269.775,129.340 269.500 C 129.268 269.225,129.209 269.450,129.209 270.000 M307.800 274.000 C 307.800 274.864,307.853 275.218,307.919 274.786 C 307.984 274.354,307.984 273.646,307.919 273.214 C 307.853 272.782,307.800 273.136,307.800 274.000 M243.360 273.059 C 243.716 273.128,244.230 273.125,244.503 273.053 C 244.776 272.982,244.486 272.926,243.857 272.929 C 243.229 272.932,243.005 272.991,243.360 273.059 M129.527 275.571 C 129.528 276.829,129.578 277.307,129.638 276.635 C 129.698 275.963,129.698 274.935,129.636 274.350 C 129.575 273.764,129.525 274.314,129.527 275.571 M289.480 278.214 L 289.532 279.857 289.641 278.434 C 289.702 277.651,289.903 276.914,290.090 276.796 C 290.316 276.652,290.263 276.579,289.929 276.576 C 289.504 276.572,289.436 276.819,289.480 278.214 M162.932 277.062 C 163.367 277.128,164.010 277.126,164.361 277.058 C 164.712 276.990,164.357 276.937,163.571 276.939 C 162.786 276.941,162.498 276.996,162.932 277.062 M307.786 278.429 C 307.790 279.057,307.848 279.281,307.916 278.925 C 307.985 278.570,307.982 278.056,307.911 277.782 C 307.839 277.509,307.783 277.800,307.786 278.429 M199.264 283.714 C 199.264 287.093,199.306 288.475,199.356 286.786 C 199.407 285.096,199.407 282.332,199.356 280.643 C 199.306 278.954,199.264 280.336,199.264 283.714 M190.286 281.571 C 189.592 282.279,189.088 282.857,189.167 282.857 C 189.245 282.857,189.877 282.279,190.571 281.571 C 191.265 280.864,191.769 280.286,191.690 280.286 C 191.612 280.286,190.980 280.864,190.286 281.571 M129.209 281.714 C 129.209 282.264,129.268 282.489,129.340 282.214 C 129.412 281.939,129.412 281.489,129.340 281.214 C 129.268 280.939,129.209 281.164,129.209 281.714 M289.237 285.286 C 289.238 286.386,289.290 286.801,289.351 286.208 C 289.413 285.615,289.412 284.715,289.349 284.208 C 289.286 283.701,289.235 284.186,289.237 285.286 M305.127 285.643 L 304.143 286.714 305.214 285.730 C 306.212 284.813,306.417 284.571,306.199 284.571 C 306.151 284.571,305.669 285.054,305.127 285.643 M315.500 286.483 C 315.775 286.555,316.225 286.555,316.500 286.483 C 316.775 286.411,316.550 286.352,316.000 286.352 C 315.450 286.352,315.225 286.411,315.500 286.483 M297.501 288.143 C 297.504 288.771,297.562 288.995,297.631 288.640 C 297.699 288.284,297.696 287.770,297.625 287.497 C 297.553 287.224,297.497 287.514,297.501 288.143 M115.839 313.786 L 115.000 314.714 115.929 313.875 C 116.794 313.093,116.988 312.857,116.768 312.857 C 116.719 312.857,116.301 313.275,115.839 313.786 M163.214 321.356 C 164.746 321.407,167.254 321.407,168.786 321.356 C 170.318 321.304,169.064 321.262,166.000 321.262 C 162.936 321.262,161.682 321.304,163.214 321.356 M149.083 321.640 C 150.071 321.696,151.614 321.696,152.511 321.639 C 153.409 321.583,152.600 321.537,150.714 321.538 C 148.829 321.538,148.094 321.584,149.083 321.640 M136.500 321.923 C 137.168 321.984,138.261 321.984,138.929 321.923 C 139.596 321.863,139.050 321.814,137.714 321.814 C 136.379 321.814,135.832 321.863,136.500 321.923 M129.071 322.202 C 129.425 322.270,130.004 322.270,130.357 322.202 C 130.711 322.134,130.421 322.078,129.714 322.078 C 129.007 322.078,128.718 322.134,129.071 322.202 M281.504 325.062 C 281.938 325.128,282.581 325.126,282.932 325.058 C 283.284 324.990,282.929 324.937,282.143 324.939 C 281.357 324.941,281.070 324.996,281.504 325.062 M289.209 328.000 C 289.209 328.550,289.268 328.775,289.340 328.500 C 289.412 328.225,289.412 327.775,289.340 327.500 C 289.268 327.225,289.209 327.450,289.209 328.000 M271.500 327.911 C 271.775 327.983,272.225 327.983,272.500 327.911 C 272.775 327.839,272.550 327.781,272.000 327.781 C 271.450 327.781,271.225 327.839,271.500 327.911 M289.247 342.429 C 289.248 344.000,289.296 344.606,289.354 343.776 C 289.412 342.946,289.411 341.660,289.352 340.919 C 289.294 340.178,289.246 340.857,289.247 342.429 M283.214 350.197 C 283.489 350.269,283.939 350.269,284.214 350.197 C 284.489 350.125,284.264 350.066,283.714 350.066 C 283.164 350.066,282.939 350.125,283.214 350.197 " stroke="none" fill="#e4a4a4" fill-rule="evenodd"></path><path id="path4" d="M226.481 173.523 C 221.591 189.037,236.046 204.342,251.714 200.240 C 262.454 197.427,269.427 186.203,267.119 175.443 C 266.749 173.717,266.962 173.745,264.677 175.124 C 254.759 181.106,236.134 180.222,228.487 173.407 L 226.950 172.037 226.481 173.523 M289.609 279.617 C 289.229 285.886,289.092 291.714,289.325 291.712 C 289.955 291.707,293.215 290.534,295.214 289.595 C 297.584 288.481,297.437 288.698,297.557 286.143 C 297.765 281.681,294.871 277.761,290.805 276.998 L 289.780 276.806 289.609 279.617 M195.688 278.256 C 193.338 279.008,188.270 283.101,188.289 284.231 C 188.291 284.339,190.734 285.608,193.718 287.049 L 199.143 289.669 199.143 283.692 L 199.143 277.714 198.214 277.730 C 197.704 277.738,196.567 277.975,195.688 278.256 M260.008 329.912 C 259.190 331.903,257.621 334.907,255.510 338.524 C 254.654 339.991,253.996 341.224,254.048 341.265 C 254.124 341.324,261.695 343.164,264.857 343.892 C 265.418 344.021,265.210 343.731,263.890 342.542 C 260.567 339.549,260.569 336.889,263.901 331.777 C 265.691 329.032,265.685 328.988,263.504 328.727 C 262.598 328.618,261.595 328.467,261.274 328.391 C 260.787 328.276,260.577 328.530,260.008 329.912 " stroke="none" fill="#fcbcbc" fill-rule="evenodd"></path></g></svg>